<?xml version="1.0" encoding="UTF-8"?>
<!DOCTYPE svg PUBLIC "-//W3C//DTD SVG 1.1//EN" "http://www.w3.org/Graphics/SVG/1.1/DTD/svg11.dtd">
<svg xmlns="http://www.w3.org/2000/svg" version="1.1" width="5443px" height="976px" style="shape-rendering:geometricPrecision; text-rendering:geometricPrecision; image-rendering:optimizeQuality; fill-rule:evenodd; clip-rule:evenodd" xmlns:xlink="http://www.w3.org/1999/xlink">
<g><path style="opacity:0.995" fill="#f24112" d="M 335.5,-0.5 C 354.167,-0.5 372.833,-0.5 391.5,-0.5C 391.5,59.1667 391.5,118.833 391.5,178.5C 373.144,178.228 354.81,178.728 336.5,180C 276.034,188.463 230.534,218.963 200,271.5C 183.501,303.659 176.334,337.825 178.5,374C 178.833,382.5 179.167,391 179.5,399.5C 245.476,363.103 316.143,347.77 391.5,353.5C 391.5,413.167 391.5,472.833 391.5,532.5C 372.14,532.157 352.806,532.657 333.5,534C 275.95,542.838 232.117,572.005 202,621.5C 187.953,646.687 180.287,673.687 179,702.5C 178.5,787.833 178.333,873.166 178.5,958.5C 118.833,958.5 59.1667,958.5 -0.5,958.5C -0.5,750.167 -0.5,541.833 -0.5,333.5C 11.907,203.339 74.5737,105.839 187.5,41C 234.011,16.6572 283.344,2.82385 335.5,-0.5 Z"/></g>
<g><path style="opacity:0.996" fill="#f24112" d="M 2689.5,975.5 C 2681.5,975.5 2673.5,975.5 2665.5,975.5C 2539.35,963.21 2443.51,903.21 2378,795.5C 2352.33,750.161 2337.33,701.495 2333,649.5C 2332.5,465.5 2332.33,281.5 2332.5,97.5C 2392.17,97.5 2451.83,97.5 2511.5,97.5C 2511.5,157.833 2511.5,218.167 2511.5,278.5C 2563.17,278.5 2614.83,278.5 2666.5,278.5C 2666.5,338.167 2666.5,397.833 2666.5,457.5C 2614.83,457.5 2563.17,457.5 2511.5,457.5C 2511.33,514.834 2511.5,572.168 2512,629.5C 2518.55,698.681 2552.72,748.847 2614.5,780C 2638.35,790.67 2663.35,796.17 2689.5,796.5C 2689.5,856.167 2689.5,915.833 2689.5,975.5 Z"/></g>
<g><path style="opacity:0.995" fill="#90877e" d="M 3119.5,975.5 C 3103.83,975.5 3088.17,975.5 3072.5,975.5C 2947.96,963.515 2853.13,904.515 2788,798.5C 2734.47,700.957 2726.14,599.623 2763,494.5C 2806.26,387.911 2882.42,316.411 2991.5,280C 3088.76,251.925 3181.76,262.092 3270.5,310.5C 3271.5,239.503 3271.83,168.503 3271.5,97.5C 3331.5,97.5 3391.5,97.5 3451.5,97.5C 3451.67,280.167 3451.5,462.834 3451,645.5C 3438.27,772.561 3377.1,868.061 3267.5,932C 3221.12,956.965 3171.79,971.465 3119.5,975.5 Z M 3094.5,443.5 C 3170.76,446.985 3225.26,482.985 3258,551.5C 3283.38,618.525 3273.72,679.859 3229,735.5C 3176.42,791.105 3113.26,808.272 3039.5,787C 2976.81,763.307 2937.97,718.807 2923,653.5C 2912.4,584.943 2933.24,528.11 2985.5,483C 3017.54,457.978 3053.88,444.811 3094.5,443.5 Z"/></g>
<g><path style="opacity:0.995" fill="#f24112" d="M 768.5,264.5 C 774.833,264.5 781.167,264.5 787.5,264.5C 787.833,324.17 787.5,383.837 786.5,443.5C 712.521,447.551 659.021,482.551 626,548.5C 617.223,568.941 612.223,590.274 611,612.5C 610.5,727.833 610.333,843.166 610.5,958.5C 550.833,958.5 491.167,958.5 431.5,958.5C 431.333,838.5 431.5,718.5 432,598.5C 441.472,483.343 492.972,392.51 586.5,326C 641.659,289.225 702.326,268.725 768.5,264.5 Z"/></g>
<g><path style="opacity:0.995" fill="#f24112" d="M 1174.5,975.5 C 1159.17,975.5 1143.83,975.5 1128.5,975.5C 1015.29,964.995 925.454,913.995 859,822.5C 801.488,736.265 783.488,642.265 805,540.5C 834.474,424.991 903.308,342.491 1011.5,293C 1106.78,254.413 1201.78,255.08 1296.5,295C 1377.94,332.776 1437.78,392.276 1476,473.5C 1519.41,575.572 1517.74,676.905 1471,777.5C 1407.7,896.242 1308.86,962.242 1174.5,975.5 Z M 1150.5,443.5 C 1226.77,447.001 1281.27,483.001 1314,551.5C 1339.35,619.081 1329.35,680.748 1284,736.5C 1237.35,785.827 1180.52,804.327 1113.5,792C 1041.35,772.85 996.516,727.017 979,654.5C 967.805,580.754 991.639,521.254 1050.5,476C 1080.73,455.422 1114.07,444.589 1150.5,443.5 Z"/></g>
<g><path style="opacity:0.995" fill="#f24112" d="M 1901.5,264.5 C 2025.3,261.998 2125.8,308.665 2203,404.5C 2243.89,458.985 2267.56,520.318 2274,588.5C 2275.47,711.819 2275.97,835.153 2275.5,958.5C 2215.5,958.5 2155.5,958.5 2095.5,958.5C 2095.67,839.833 2095.5,721.166 2095,602.5C 2087.39,543.738 2058.56,498.904 2008.5,468C 1955.73,439.209 1901.73,436.542 1846.5,460C 1785.18,491.026 1751.01,540.86 1744,609.5C 1743.5,725.833 1743.33,842.166 1743.5,958.5C 1683.83,958.5 1624.17,958.5 1564.5,958.5C 1564.33,837.5 1564.5,716.5 1565,595.5C 1575.3,483.017 1625.8,393.851 1716.5,328C 1772.37,289.989 1834.03,268.823 1901.5,264.5 Z"/></g>
<g><path style="opacity:0.995" fill="#90877e" d="M 3887.5,975.5 C 3871.83,975.5 3856.17,975.5 3840.5,975.5C 3715.96,963.516 3621.13,904.516 3556,798.5C 3503.79,703.955 3494.45,605.288 3528,502.5C 3559.78,416.054 3615.95,350.554 3696.5,306C 3790.32,258.584 3886.99,251.917 3986.5,286C 4100.14,330.972 4173.97,412.139 4208,529.5C 4236.49,651.873 4210.49,760.873 4130,856.5C 4064.72,927.556 3983.89,967.222 3887.5,975.5 Z M 3862.5,443.5 C 3935.6,446.495 3989.1,480.162 4023,544.5C 4050.42,608.225 4044.42,668.558 4005,725.5C 3959.96,781.409 3901.8,803.909 3830.5,793C 3770.7,779.532 3727.87,745.032 3702,689.5C 3676.29,622.152 3685.95,560.485 3731,504.5C 3766.24,465.631 3810.07,445.298 3862.5,443.5 Z"/></g>
<g><path style="opacity:0.995" fill="#90877e" d="M 4641.5,975.5 C 4625.83,975.5 4610.17,975.5 4594.5,975.5C 4485.38,965.366 4397.55,917.033 4331,830.5C 4266.9,738.939 4247.9,638.606 4274,529.5C 4308.03,412.139 4381.86,330.972 4495.5,286C 4588.44,253.899 4679.78,257.899 4769.5,298C 4879.11,352.975 4945.61,440.809 4969,561.5C 4986.12,684.818 4950.95,790.318 4863.5,878C 4800.86,935.95 4726.86,968.45 4641.5,975.5 Z M 4616.5,443.5 C 4677.29,445.142 4725.79,470.142 4762,518.5C 4801.75,579.695 4804.75,642.695 4771,707.5C 4735.85,763.926 4684.85,793.592 4618,796.5C 4544.47,793.095 4491.14,758.762 4458,693.5C 4429.66,623.912 4439.32,560.246 4487,502.5C 4522.17,465.333 4565.34,445.666 4616.5,443.5 Z"/></g>
<g><path style="opacity:0.993" fill="#90877e" d="M 5367.5,264.5 C 5373.83,264.5 5380.17,264.5 5386.5,264.5C 5386.83,324.17 5386.5,383.837 5385.5,443.5C 5321.84,446.401 5272.34,474.067 5237,526.5C 5222.75,549.907 5214.09,575.24 5211,602.5C 5210.5,721.166 5210.33,839.833 5210.5,958.5C 5150.5,958.5 5090.5,958.5 5030.5,958.5C 5030.33,839.833 5030.5,721.166 5031,602.5C 5041.3,473.658 5101.46,376.158 5211.5,310C 5260.22,283.144 5312.22,267.977 5367.5,264.5 Z"/></g>
<g><path style="opacity:0.983" fill="#90877e" d="M 1980.5,670.5 C 2013.58,668.444 2035.08,683.111 2045,714.5C 2050.01,745.32 2038.51,767.486 2010.5,781C 1981.12,790.29 1957.62,782.457 1940,757.5C 1926.51,730.245 1930.34,705.745 1951.5,684C 1960.24,677.294 1969.91,672.794 1980.5,670.5 Z"/></g>
<g><path style="opacity:0.874" fill="#90877e" d="M 5442.5,895.5 C 5442.5,900.833 5442.5,906.167 5442.5,911.5C 5434.08,945.898 5412.08,962.065 5376.5,960C 5346.1,953.361 5330.1,934.528 5328.5,903.5C 5330.16,873.005 5345.83,854.171 5375.5,847C 5411.82,844.186 5434.15,860.352 5442.5,895.5 Z M 5377.5,853.5 C 5407.04,851.892 5425.87,865.226 5434,893.5C 5437.06,919.553 5426.89,938.387 5403.5,950C 5373.94,958.487 5352.44,948.987 5339,921.5C 5331.26,895.717 5338.43,875.217 5360.5,860C 5366.02,857.11 5371.69,854.943 5377.5,853.5 Z M 5374.5,883.5 C 5381.24,883.171 5387.91,883.671 5394.5,885C 5399.54,888.013 5400.7,892.18 5398,897.5C 5396.42,899.041 5394.59,900.208 5392.5,901C 5386.51,901.499 5380.51,901.666 5374.5,901.5C 5374.5,895.5 5374.5,889.5 5374.5,883.5 Z"/></g>
<g><path style="opacity:0.94" fill="#90877e" d="M 5362.5,873.5 C 5374.17,873.333 5385.84,873.5 5397.5,874C 5409.84,877.589 5414.34,885.755 5411,898.5C 5408.5,903.667 5404.67,907.5 5399.5,910C 5404.36,916.696 5409.03,923.53 5413.5,930.5C 5408.87,931.662 5404.2,931.828 5399.5,931C 5394.8,925.096 5390.46,918.929 5386.5,912.5C 5382.55,911.509 5378.55,911.176 5374.5,911.5C 5374.5,918.167 5374.5,924.833 5374.5,931.5C 5370.5,931.5 5366.5,931.5 5362.5,931.5C 5362.5,912.167 5362.5,892.833 5362.5,873.5 Z M 5374.5,883.5 C 5374.5,889.5 5374.5,895.5 5374.5,901.5C 5380.51,901.666 5386.51,901.499 5392.5,901C 5394.59,900.208 5396.42,899.041 5398,897.5C 5400.7,892.18 5399.54,888.013 5394.5,885C 5387.91,883.671 5381.24,883.171 5374.5,883.5 Z"/></g>
</svg>
